<svg width="274" height="274" viewBox="0 0 274 274" fill="none" xmlns="http://www.w3.org/2000/svg">
<circle cx="137" cy="137" r="137" fill="black"/>
<path d="M38.51 118.935C38.51 116.535 37.7 114.69 36.08 113.4L32.48 110.745C29.78 108.825 28.43 105.99 28.43 102.24C28.43 99.12 29.015 96.945 30.185 95.715C31.385 94.455 33.005 93.825 35.045 93.825C37.115 93.825 38.72 94.41 39.86 95.58C41 96.72 41.69 98.805 41.93 101.835L38.51 102.6C38.39 98.76 37.265 96.84 35.135 96.84C33.035 96.84 31.985 98.475 31.985 101.745C31.985 103.185 32.135 104.355 32.435 105.255C32.765 106.155 33.38 106.965 34.28 107.685L37.835 110.34C38.675 110.94 39.35 111.51 39.86 112.05C40.37 112.59 40.85 113.46 41.3 114.66C41.78 115.83 42.02 117.225 42.02 118.845C42.02 121.725 41.39 123.75 40.13 124.92C38.9 126.09 37.22 126.675 35.09 126.675C32.96 126.675 31.295 125.985 30.095 124.605C28.895 123.225 28.16 120.765 27.89 117.225L31.265 116.64C31.385 119.19 31.745 121.005 32.345 122.085C32.975 123.165 33.845 123.705 34.955 123.705C37.325 123.705 38.51 122.115 38.51 118.935ZM55.2247 101.7H58.6447V126H56.5297L55.8097 123.03C55.1197 125.46 53.6647 126.675 51.4447 126.675C49.7947 126.675 48.5497 126.165 47.7097 125.145C46.8697 124.125 46.4497 122.175 46.4497 119.295V101.7H49.8697V119.565C49.8697 121.215 50.0647 122.34 50.4547 122.94C50.8747 123.54 51.4897 123.84 52.2997 123.84C54.1297 123.84 55.1047 122.385 55.2247 119.475V101.7ZM64.3428 101.7H66.4578L67.3578 105.615C68.0478 102.555 69.5778 101.025 71.9478 101.025C73.5378 101.025 74.7528 101.7 75.5928 103.05C76.4328 104.4 76.8528 106.875 76.8528 110.475V117.225C76.8528 120.825 76.4328 123.3 75.5928 124.65C74.7528 126 73.5378 126.675 71.9478 126.675C69.7578 126.675 68.3178 125.265 67.6278 122.445V134.1H64.3428V101.7ZM67.6278 113.85C67.6278 116.55 67.7928 118.68 68.1228 120.24C68.4828 121.8 68.8878 122.805 69.3378 123.255C69.7878 123.675 70.3878 123.885 71.1378 123.885C72.7578 123.885 73.5678 122.025 73.5678 118.305V109.395C73.5678 105.675 72.7728 103.815 71.1828 103.815C70.4928 103.815 69.9078 104.025 69.4278 104.445C68.9778 104.865 68.5728 105.795 68.2128 107.235C67.8528 108.675 67.6578 110.67 67.6278 113.22V113.85ZM86.827 126H82.867V101.88H86.827V126ZM91.507 95.535V98.73H78.142V95.535H91.507ZM97.7536 126.675C96.1936 126.675 94.9786 126 94.1086 124.65C93.2686 123.27 92.8486 120.795 92.8486 117.225V110.475C92.8486 106.905 93.2686 104.445 94.1086 103.095C94.9786 101.715 96.1936 101.025 97.7536 101.025C99.9136 101.025 101.384 102.315 102.164 104.895V92.7H105.449V126H103.334L102.254 121.32C101.654 124.89 100.154 126.675 97.7536 126.675ZM101.534 120.285C101.864 118.725 102.029 116.58 102.029 113.85C102.029 111.12 101.849 108.99 101.489 107.46C101.159 105.9 100.754 104.91 100.274 104.49C99.8236 104.04 99.2236 103.815 98.4736 103.815C96.9436 103.815 96.1786 105.675 96.1786 109.395V118.305C96.1786 120.375 96.3886 121.83 96.8086 122.67C97.2286 123.48 97.8136 123.885 98.5636 123.885C99.3136 123.885 99.9136 123.675 100.364 123.255C100.814 122.805 101.204 121.815 101.534 120.285ZM123.116 110.475V117.225C123.116 120.795 122.561 123.27 121.451 124.65C120.371 126 118.811 126.675 116.771 126.675C114.761 126.675 113.201 126 112.091 124.65C111.011 123.27 110.471 120.795 110.471 117.225V110.475C110.471 106.905 111.011 104.445 112.091 103.095C113.201 101.715 114.761 101.025 116.771 101.025C118.811 101.025 120.371 101.715 121.451 103.095C122.561 104.445 123.116 106.905 123.116 110.475ZM119.651 117.855V109.845C119.651 105.825 118.706 103.815 116.816 103.815C114.866 103.815 113.891 105.825 113.891 109.845V117.855C113.891 121.875 114.866 123.885 116.816 123.885C118.706 123.885 119.651 121.875 119.651 117.855ZM54.8965 167.25C54.8965 169.703 54.4668 171.824 53.6074 173.615C52.766 175.387 51.6022 176.855 50.1162 178.019C48.6481 179.165 46.9204 180.015 44.9331 180.57C42.9637 181.107 40.8421 181.376 38.5684 181.376C37.6911 181.376 36.7243 181.26 35.668 181.027C34.6296 180.794 33.5732 180.508 32.499 180.167C31.4248 179.809 30.3864 179.433 29.3838 179.04C28.3991 178.628 27.5218 178.243 26.752 177.885L27.9336 167.357C29.4554 168.271 31.1383 168.969 32.9824 169.452C34.8444 169.918 36.6706 170.15 38.4609 170.15C38.8011 170.15 39.2129 170.141 39.6963 170.124C40.1797 170.088 40.6362 170.007 41.0659 169.882C41.5135 169.739 41.8895 169.533 42.1938 169.264C42.4982 168.996 42.6504 168.611 42.6504 168.109C42.6504 167.769 42.543 167.483 42.3281 167.25C42.1133 166.999 41.8358 166.802 41.4956 166.659C41.1554 166.498 40.7705 166.382 40.3408 166.31C39.9111 166.221 39.4904 166.158 39.0786 166.122C38.6668 166.086 38.2819 166.068 37.9238 166.068C37.5658 166.068 37.2793 166.068 37.0645 166.068C35.5247 166.068 34.1193 165.827 32.8481 165.343C31.5949 164.86 30.5117 164.18 29.5986 163.302C28.7035 162.407 28.0052 161.333 27.5039 160.08C27.0026 158.808 26.752 157.403 26.752 155.863C26.752 153.751 27.1727 151.862 28.0142 150.197C28.8735 148.514 30.0104 147.09 31.4248 145.927C32.8571 144.745 34.4953 143.841 36.3394 143.214C38.1834 142.588 40.0902 142.274 42.0596 142.274C42.9368 142.274 43.841 142.31 44.772 142.382C45.703 142.436 46.625 142.543 47.5381 142.704C48.4691 142.865 49.3732 143.071 50.2505 143.322C51.1278 143.572 51.9603 143.886 52.748 144.262L51.7275 155.165C50.5101 154.753 49.23 154.413 47.8872 154.145C46.5623 153.858 45.2643 153.715 43.9932 153.715C43.7604 153.715 43.4561 153.724 43.0801 153.742C42.722 153.742 42.3371 153.769 41.9253 153.822C41.5314 153.858 41.1286 153.921 40.7168 154.01C40.305 154.1 39.938 154.225 39.6157 154.386C39.2935 154.529 39.0339 154.726 38.8369 154.977C38.64 155.228 38.5505 155.523 38.5684 155.863C38.5863 156.257 38.7295 156.562 38.998 156.776C39.2845 156.991 39.6426 157.152 40.0723 157.26C40.5199 157.349 41.0033 157.394 41.5225 157.394C42.0596 157.394 42.5877 157.385 43.1069 157.367C43.6261 157.331 44.1095 157.305 44.5571 157.287C45.0047 157.251 45.3717 157.242 45.6582 157.26C47.0905 157.349 48.3796 157.654 49.5254 158.173C50.6712 158.692 51.638 159.381 52.4258 160.241C53.2314 161.1 53.8402 162.13 54.252 163.329C54.6816 164.511 54.8965 165.818 54.8965 167.25ZM88.5195 179.926L75.0918 180.57L74.9844 169.237H68.8076L68.4316 181H56.4004L57.4209 143.241L70.2041 143.832L69.3984 163.114H75.3604L75.4141 142.919L87.6602 143.241L88.5195 179.926ZM124.264 160.429C124.264 162.058 124.076 163.633 123.7 165.155C123.324 166.659 122.778 168.074 122.062 169.398C121.364 170.723 120.504 171.941 119.484 173.051C118.481 174.143 117.344 175.083 116.073 175.871C114.82 176.658 113.45 177.276 111.964 177.724C110.478 178.153 108.903 178.368 107.238 178.368C105.626 178.368 104.087 178.162 102.619 177.75C101.168 177.339 99.8078 176.766 98.5366 176.032C97.2655 175.28 96.1107 174.385 95.0723 173.346C94.0518 172.29 93.1745 171.126 92.4404 169.855C91.7243 168.566 91.1603 167.187 90.7485 165.719C90.3547 164.251 90.1577 162.72 90.1577 161.127C90.1577 159.569 90.3457 158.048 90.7217 156.562C91.0977 155.058 91.6348 153.643 92.333 152.318C93.0492 150.993 93.9085 149.776 94.9111 148.666C95.9137 147.556 97.0327 146.598 98.2681 145.792C99.5213 144.987 100.873 144.36 102.323 143.913C103.773 143.465 105.304 143.241 106.916 143.241C109.512 143.241 111.875 143.644 114.005 144.45C116.154 145.255 117.98 146.41 119.484 147.914C121.006 149.4 122.178 151.208 123.002 153.339C123.843 155.451 124.264 157.815 124.264 160.429ZM112.34 161.127C112.34 160.357 112.224 159.614 111.991 158.898C111.776 158.164 111.454 157.519 111.024 156.964C110.595 156.391 110.058 155.935 109.413 155.595C108.786 155.237 108.061 155.058 107.238 155.058C106.396 155.058 105.644 155.21 104.982 155.514C104.319 155.819 103.747 156.239 103.263 156.776C102.798 157.296 102.44 157.913 102.189 158.629C101.938 159.328 101.813 160.071 101.813 160.858C101.813 161.61 101.92 162.362 102.135 163.114C102.35 163.866 102.672 164.547 103.102 165.155C103.532 165.764 104.06 166.256 104.687 166.632C105.331 167.008 106.074 167.196 106.916 167.196C107.757 167.196 108.509 167.035 109.171 166.713C109.852 166.373 110.425 165.925 110.89 165.37C111.356 164.797 111.714 164.144 111.964 163.41C112.215 162.676 112.34 161.915 112.34 161.127ZM157.431 156.239C157.431 157.976 157.171 159.516 156.652 160.858C156.133 162.201 155.417 163.383 154.503 164.403C153.608 165.406 152.552 166.256 151.334 166.955C150.117 167.635 148.81 168.199 147.414 168.646C146.035 169.076 144.603 169.398 143.117 169.613C141.631 169.81 140.172 169.918 138.739 169.936V181.376H126.225C126.225 179.335 126.225 177.348 126.225 175.414C126.243 173.48 126.251 171.565 126.251 169.667C126.269 167.751 126.278 165.827 126.278 163.893C126.296 161.959 126.314 159.963 126.332 157.904C126.368 155.72 126.377 153.536 126.359 151.352C126.341 149.167 126.386 146.965 126.493 144.745C128.785 144.065 131.076 143.555 133.368 143.214C135.66 142.874 138.023 142.704 140.458 142.704C141.837 142.704 143.215 142.82 144.594 143.053C145.972 143.268 147.288 143.617 148.542 144.101C149.813 144.584 150.985 145.193 152.06 145.927C153.152 146.643 154.092 147.502 154.879 148.505C155.667 149.507 156.285 150.653 156.732 151.942C157.198 153.231 157.431 154.664 157.431 156.239ZM145.507 157.152C145.507 155.989 145.149 155.084 144.433 154.44C143.734 153.778 142.821 153.446 141.693 153.446C141.317 153.446 140.924 153.482 140.512 153.554C140.118 153.607 139.742 153.679 139.384 153.769L139.062 161.61C139.312 161.646 139.554 161.664 139.787 161.664C140.019 161.664 140.261 161.664 140.512 161.664C141.156 161.664 141.774 161.557 142.365 161.342C142.973 161.127 143.511 160.823 143.976 160.429C144.442 160.017 144.809 159.542 145.077 159.005C145.364 158.45 145.507 157.833 145.507 157.152ZM190.248 156.239C190.248 157.976 189.988 159.516 189.469 160.858C188.95 162.201 188.234 163.383 187.321 164.403C186.426 165.406 185.369 166.256 184.152 166.955C182.934 167.635 181.627 168.199 180.231 168.646C178.852 169.076 177.42 169.398 175.934 169.613C174.448 169.81 172.989 169.918 171.557 169.936V181.376H159.042C159.042 179.335 159.042 177.348 159.042 175.414C159.06 173.48 159.069 171.565 159.069 169.667C159.087 167.751 159.096 165.827 159.096 163.893C159.114 161.959 159.132 159.963 159.149 157.904C159.185 155.72 159.194 153.536 159.176 151.352C159.158 149.167 159.203 146.965 159.311 144.745C161.602 144.065 163.894 143.555 166.186 143.214C168.477 142.874 170.84 142.704 173.275 142.704C174.654 142.704 176.033 142.82 177.411 143.053C178.79 143.268 180.106 143.617 181.359 144.101C182.63 144.584 183.803 145.193 184.877 145.927C185.969 146.643 186.909 147.502 187.697 148.505C188.485 149.507 189.102 150.653 189.55 151.942C190.015 153.231 190.248 154.664 190.248 156.239ZM178.324 157.152C178.324 155.989 177.966 155.084 177.25 154.44C176.552 153.778 175.639 153.446 174.511 153.446C174.135 153.446 173.741 153.482 173.329 153.554C172.935 153.607 172.559 153.679 172.201 153.769L171.879 161.61C172.13 161.646 172.371 161.664 172.604 161.664C172.837 161.664 173.078 161.664 173.329 161.664C173.974 161.664 174.591 161.557 175.182 161.342C175.791 161.127 176.328 160.823 176.793 160.429C177.259 160.017 177.626 159.542 177.895 159.005C178.181 158.45 178.324 157.833 178.324 157.152ZM223.791 143.188C222.985 149.49 222.296 155.765 221.723 162.013C221.15 168.244 220.604 174.519 220.084 180.839L209.074 181.645L209.557 177.509C209.199 177.921 208.778 178.279 208.295 178.583C207.829 178.887 207.328 179.138 206.791 179.335C206.254 179.514 205.699 179.648 205.126 179.738C204.553 179.809 204.007 179.836 203.488 179.818C202.27 179.8 201.125 179.568 200.05 179.12C198.976 178.655 197.991 178.046 197.096 177.294C196.201 176.524 195.395 175.638 194.679 174.635C193.963 173.615 193.354 172.549 192.853 171.439C192.37 170.312 191.994 169.166 191.725 168.002C191.474 166.838 191.349 165.71 191.349 164.618C191.349 163.007 191.376 161.342 191.43 159.623C191.501 157.886 191.618 156.15 191.779 154.413C191.94 152.676 192.146 150.958 192.396 149.257C192.665 147.556 192.996 145.927 193.39 144.369C195.574 144.477 197.768 144.575 199.97 144.665C202.172 144.754 204.365 144.781 206.549 144.745C206.138 146.303 205.726 147.869 205.314 149.445C204.92 151.002 204.562 152.578 204.24 154.171C203.917 155.747 203.658 157.331 203.461 158.925C203.264 160.518 203.166 162.13 203.166 163.759C203.166 164.135 203.183 164.672 203.219 165.37C203.255 166.068 203.345 166.758 203.488 167.438C203.649 168.118 203.882 168.718 204.186 169.237C204.508 169.739 204.956 169.989 205.529 169.989C206.209 169.989 206.818 169.703 207.355 169.13C207.892 168.539 208.367 167.751 208.778 166.767C209.19 165.782 209.539 164.645 209.826 163.356C210.13 162.067 210.381 160.724 210.578 159.328C210.792 157.913 210.963 156.49 211.088 155.058C211.213 153.625 211.303 152.283 211.356 151.029C211.428 149.758 211.473 148.621 211.491 147.619C211.527 146.616 211.544 145.837 211.544 145.282C211.544 144.924 211.535 144.575 211.518 144.235C211.5 143.895 211.473 143.546 211.437 143.188C212.601 143.223 213.756 143.25 214.901 143.268C216.047 143.286 217.202 143.295 218.366 143.295C219.261 143.295 220.156 143.295 221.051 143.295C221.964 143.277 222.877 143.241 223.791 143.188Z" fill="white"/>
</svg>
